<svg width="44" height="34" viewBox="0 0 44 34" fill="none" xmlns="http://www.w3.org/2000/svg">
<g filter="url(#filter0_ddd_20_478)">
<path fill-rule="evenodd" clip-rule="evenodd" d="M30.6897 22.8011C32.5179 22.801 34 21.2848 34 19.4144C34 17.544 32.5179 16.0277 30.6896 16.0277C30.4033 16.0277 30.1254 16.0649 29.8604 16.1349C29.8615 16.0993 29.862 16.0636 29.862 16.0277C29.862 14.1573 28.3799 12.6411 26.5516 12.6411C26.0628 12.6411 25.5986 12.7495 25.181 12.9441C24.3584 10.7536 22.6869 9.25439 20.7587 9.25439C18.6004 9.25439 16.7637 11.1328 16.0792 13.7564C15.6018 13.5825 15.0876 13.4877 14.5517 13.4877C12.0379 13.4877 10 15.5726 10 18.1444C10 20.7162 12.0379 22.8011 14.5517 22.8011C14.6912 22.8011 14.8293 22.7947 14.9656 22.7821V22.8011H30.6897V22.8011Z" fill="url(#paint0_linear_20_478)"/>
</g>
<defs>
<filter id="filter0_ddd_20_478" x="0" y="0.254395" width="44" height="33.5467" filterUnits="userSpaceOnUse" color-interpolation-filters="sRGB">
<feFlood flood-opacity="0" result="BackgroundImageFix"/>
<feColorMatrix in="SourceAlpha" type="matrix" values="0 0 0 0 0 0 0 0 0 0 0 0 0 0 0 0 0 0 127 0" result="hardAlpha"/>
<feOffset dy="1"/>
<feGaussianBlur stdDeviation="5"/>
<feComposite in2="hardAlpha" operator="out"/>
<feColorMatrix type="matrix" values="0 0 0 0 0 0 0 0 0 0 0 0 0 0 0 0 0 0 0.12 0"/>
<feBlend mode="normal" in2="BackgroundImageFix" result="effect1_dropShadow_20_478"/>
<feColorMatrix in="SourceAlpha" type="matrix" values="0 0 0 0 0 0 0 0 0 0 0 0 0 0 0 0 0 0 127 0" result="hardAlpha"/>
<feOffset dy="4"/>
<feGaussianBlur stdDeviation="2.5"/>
<feComposite in2="hardAlpha" operator="out"/>
<feColorMatrix type="matrix" values="0 0 0 0 0 0 0 0 0 0 0 0 0 0 0 0 0 0 0.14 0"/>
<feBlend mode="normal" in2="effect1_dropShadow_20_478" result="effect2_dropShadow_20_478"/>
<feColorMatrix in="SourceAlpha" type="matrix" values="0 0 0 0 0 0 0 0 0 0 0 0 0 0 0 0 0 0 127 0" result="hardAlpha"/>
<feMorphology radius="1" operator="erode" in="SourceAlpha" result="effect3_dropShadow_20_478"/>
<feOffset dy="2"/>
<feGaussianBlur stdDeviation="2"/>
<feComposite in2="hardAlpha" operator="out"/>
<feColorMatrix type="matrix" values="0 0 0 0 0 0 0 0 0 0 0 0 0 0 0 0 0 0 0.2 0"/>
<feBlend mode="normal" in2="effect2_dropShadow_20_478" result="effect3_dropShadow_20_478"/>
<feBlend mode="normal" in="SourceGraphic" in2="effect3_dropShadow_20_478" result="shape"/>
</filter>
<linearGradient id="paint0_linear_20_478" x1="10" y1="9.36441" x2="34.33" y2="22.5432" gradientUnits="userSpaceOnUse">
<stop stop-color="#CCCCCC"/>
<stop offset="1" stop-color="#B2B2B2"/>
</linearGradient>
</defs>
</svg>
