<svg width="44" height="43" viewBox="0 0 44 43" fill="none" xmlns="http://www.w3.org/2000/svg">
<g filter="url(#filter0_ddd_20_426)">
<circle cx="24.4661" cy="19.3407" r="9.53391" fill="url(#paint0_linear_20_426)"/>
</g>
<g filter="url(#filter1_ddd_20_426)">
<path fill-rule="evenodd" clip-rule="evenodd" d="M20.6075 31.0612C20.6092 31.0612 20.611 31.0612 20.6127 31.0612C20.6145 31.0612 20.6163 31.0612 20.618 31.0612H30.4091C32.2125 31.0612 33.6744 29.5655 33.6744 27.7205C33.6744 25.8755 32.2125 24.3798 30.409 24.3798C30.1265 24.3798 29.8524 24.4165 29.591 24.4854C29.5921 24.4503 29.5926 24.4151 29.5926 24.3798C29.5926 22.5347 28.1306 21.039 26.3272 21.039C25.8449 21.039 25.387 21.146 24.975 21.338C24.1637 19.1772 22.5148 17.6983 20.6127 17.6983C18.4837 17.6983 16.6719 19.5512 15.9968 22.1393C15.5258 21.9677 15.0185 21.8742 14.49 21.8742C12.0102 21.8742 10 23.9308 10 26.4677C10 29.0047 12.0102 31.0612 14.49 31.0612C14.6276 31.0612 14.7638 31.0549 14.8982 31.0425V31.0612H20.6075Z" fill="url(#paint1_linear_20_426)"/>
</g>
<ellipse cx="13.5247" cy="29.7897" rx="1" ry="1.75" transform="rotate(19.41 13.5247 29.7897)" fill="#4BAAF5"/>
<ellipse cx="17.5247" cy="32.7897" rx="1" ry="1.75" transform="rotate(19.41 17.5247 32.7897)" fill="#4BAAF5"/>
<ellipse cx="23.5247" cy="29.7897" rx="1" ry="1.75" transform="rotate(19.41 23.5247 29.7897)" fill="#4BAAF5"/>
<ellipse cx="27.5247" cy="32.7897" rx="1" ry="1.75" transform="rotate(19.41 27.5247 32.7897)" fill="#4BAAF5"/>
<ellipse cx="11.5247" cy="33.7897" rx="1" ry="1.75" transform="rotate(19.41 11.5247 33.7897)" fill="#4BAAF5"/>
<ellipse cx="15.5247" cy="36.7554" rx="1" ry="1.75" transform="rotate(19.41 15.5247 36.7554)" fill="#4BAAF5"/>
<ellipse cx="21.5247" cy="33.7897" rx="1" ry="1.75" transform="rotate(19.41 21.5247 33.7897)" fill="#4BAAF5"/>
<ellipse cx="25.5247" cy="36.7897" rx="1" ry="1.75" transform="rotate(19.41 25.5247 36.7897)" fill="#4BAAF5"/>
<defs>
<filter id="filter0_ddd_20_426" x="4.93219" y="0.806824" width="39.0678" height="39.0678" filterUnits="userSpaceOnUse" color-interpolation-filters="sRGB">
<feFlood flood-opacity="0" result="BackgroundImageFix"/>
<feColorMatrix in="SourceAlpha" type="matrix" values="0 0 0 0 0 0 0 0 0 0 0 0 0 0 0 0 0 0 127 0" result="hardAlpha"/>
<feOffset dy="1"/>
<feGaussianBlur stdDeviation="5"/>
<feComposite in2="hardAlpha" operator="out"/>
<feColorMatrix type="matrix" values="0 0 0 0 0 0 0 0 0 0 0 0 0 0 0 0 0 0 0.12 0"/>
<feBlend mode="normal" in2="BackgroundImageFix" result="effect1_dropShadow_20_426"/>
<feColorMatrix in="SourceAlpha" type="matrix" values="0 0 0 0 0 0 0 0 0 0 0 0 0 0 0 0 0 0 127 0" result="hardAlpha"/>
<feOffset dy="4"/>
<feGaussianBlur stdDeviation="2.5"/>
<feComposite in2="hardAlpha" operator="out"/>
<feColorMatrix type="matrix" values="0 0 0 0 0 0 0 0 0 0 0 0 0 0 0 0 0 0 0.14 0"/>
<feBlend mode="normal" in2="effect1_dropShadow_20_426" result="effect2_dropShadow_20_426"/>
<feColorMatrix in="SourceAlpha" type="matrix" values="0 0 0 0 0 0 0 0 0 0 0 0 0 0 0 0 0 0 127 0" result="hardAlpha"/>
<feMorphology radius="1" operator="erode" in="SourceAlpha" result="effect3_dropShadow_20_426"/>
<feOffset dy="2"/>
<feGaussianBlur stdDeviation="2"/>
<feComposite in2="hardAlpha" operator="out"/>
<feColorMatrix type="matrix" values="0 0 0 0 0 0 0 0 0 0 0 0 0 0 0 0 0 0 0.2 0"/>
<feBlend mode="normal" in2="effect2_dropShadow_20_426" result="effect3_dropShadow_20_426"/>
<feBlend mode="normal" in="SourceGraphic" in2="effect3_dropShadow_20_426" result="shape"/>
</filter>
<filter id="filter1_ddd_20_426" x="0" y="8.6983" width="43.6744" height="33.3629" filterUnits="userSpaceOnUse" color-interpolation-filters="sRGB">
<feFlood flood-opacity="0" result="BackgroundImageFix"/>
<feColorMatrix in="SourceAlpha" type="matrix" values="0 0 0 0 0 0 0 0 0 0 0 0 0 0 0 0 0 0 127 0" result="hardAlpha"/>
<feOffset dy="1"/>
<feGaussianBlur stdDeviation="5"/>
<feComposite in2="hardAlpha" operator="out"/>
<feColorMatrix type="matrix" values="0 0 0 0 0 0 0 0 0 0 0 0 0 0 0 0 0 0 0.12 0"/>
<feBlend mode="normal" in2="BackgroundImageFix" result="effect1_dropShadow_20_426"/>
<feColorMatrix in="SourceAlpha" type="matrix" values="0 0 0 0 0 0 0 0 0 0 0 0 0 0 0 0 0 0 127 0" result="hardAlpha"/>
<feOffset dy="4"/>
<feGaussianBlur stdDeviation="2.5"/>
<feComposite in2="hardAlpha" operator="out"/>
<feColorMatrix type="matrix" values="0 0 0 0 0 0 0 0 0 0 0 0 0 0 0 0 0 0 0.14 0"/>
<feBlend mode="normal" in2="effect1_dropShadow_20_426" result="effect2_dropShadow_20_426"/>
<feColorMatrix in="SourceAlpha" type="matrix" values="0 0 0 0 0 0 0 0 0 0 0 0 0 0 0 0 0 0 127 0" result="hardAlpha"/>
<feMorphology radius="1" operator="erode" in="SourceAlpha" result="effect3_dropShadow_20_426"/>
<feOffset dy="2"/>
<feGaussianBlur stdDeviation="2"/>
<feComposite in2="hardAlpha" operator="out"/>
<feColorMatrix type="matrix" values="0 0 0 0 0 0 0 0 0 0 0 0 0 0 0 0 0 0 0.2 0"/>
<feBlend mode="normal" in2="effect2_dropShadow_20_426" result="effect3_dropShadow_20_426"/>
<feBlend mode="normal" in="SourceGraphic" in2="effect3_dropShadow_20_426" result="shape"/>
</filter>
<linearGradient id="paint0_linear_20_426" x1="24.4661" y1="9.80682" x2="34" y2="28.8746" gradientUnits="userSpaceOnUse">
<stop stop-color="#FFE066"/>
<stop offset="0.822917" stop-color="#FFCC00"/>
</linearGradient>
<linearGradient id="paint1_linear_20_426" x1="10" y1="17.8068" x2="34" y2="30.8068" gradientUnits="userSpaceOnUse">
<stop stop-color="#CCCCCC"/>
<stop offset="1" stop-color="#B2B2B2"/>
</linearGradient>
</defs>
</svg>
