<svg width="42" height="45" viewBox="0 0 42 45" fill="none" xmlns="http://www.w3.org/2000/svg">
<g filter="url(#filter0_ddd_20_398)">
<path d="M30.6297 26.4226L28.7922 25.3444L30.3906 24.9085C30.7844 24.8007 31.0188 24.3882 30.9109 23.9897L30.7188 23.2632C30.6156 22.8647 30.2078 22.6257 29.8141 22.7335L26.0781 23.7507L22.7125 21.7726L26.0828 19.7944L29.8188 20.8116C30.2125 20.9194 30.6156 20.6804 30.7234 20.2819L30.9156 19.5554C31.0188 19.1569 30.7891 18.7444 30.3953 18.6366L28.7969 18.2007L30.6344 17.1226C30.9859 16.9163 31.1078 16.4569 30.9063 16.096L30.5359 15.4444C30.3344 15.0835 29.8797 14.9616 29.5281 15.1679L27.6906 16.246L28.1172 14.6194C28.2203 14.221 27.9906 13.8085 27.5969 13.7007L26.8844 13.5085C26.4906 13.4007 26.0875 13.6397 25.9797 14.0382L24.9813 17.8351L21.611 19.8132V15.8522L24.3438 13.0726C24.6297 12.7819 24.6297 12.3038 24.3438 12.0132L23.8235 11.4835C23.5375 11.1929 23.0688 11.1929 22.7828 11.4835L21.6156 12.6741V10.5226C21.6156 10.1101 21.2875 9.77255 20.8797 9.77255H20.1438C19.736 9.77255 19.4078 10.1101 19.4078 10.5226V12.6835L18.2406 11.4929C17.9547 11.2022 17.486 11.2022 17.2 11.4929L16.661 12.0226C16.375 12.3132 16.375 12.7913 16.661 13.0819L19.3938 15.8616V19.8226L16.0235 17.8444L15.025 14.0476C14.9219 13.6491 14.5141 13.4101 14.1203 13.5179L13.4078 13.7101C13.0141 13.8179 12.7797 14.2304 12.8875 14.6288L13.3141 16.2554L11.4766 15.1772C11.125 14.971 10.675 15.0929 10.4688 15.4538L10.0985 16.1054C9.8969 16.4663 10.0141 16.921 10.3703 17.1319L12.2078 18.2101L10.6094 18.6366C10.2156 18.7444 9.98127 19.1569 10.0891 19.5554L10.2813 20.2819C10.3844 20.6804 10.7922 20.9194 11.186 20.8116L14.9219 19.7944L18.2922 21.7726L14.9219 23.7507L11.186 22.7335C10.7922 22.6257 10.3891 22.8647 10.2813 23.2632L10.0891 23.9897C9.98596 24.3882 10.2156 24.8007 10.6094 24.9085L12.2078 25.3444L10.3703 26.4226C10.0188 26.6288 9.8969 27.0882 10.0985 27.4491L10.4688 28.1007C10.6703 28.4616 11.125 28.5835 11.4766 28.3772L13.3141 27.2991L12.8875 28.9257C12.7844 29.3241 13.0141 29.7366 13.4078 29.8444L14.1203 30.0366C14.5141 30.1444 14.9172 29.9054 15.025 29.5069L16.0235 25.7101L19.3938 23.7319V27.6929L16.661 30.4726C16.375 30.7632 16.375 31.2413 16.661 31.5319L17.1813 32.0616C17.4672 32.3522 17.936 32.3522 18.2219 32.0616L19.3891 30.871V33.0226C19.3891 33.4351 19.7172 33.7726 20.125 33.7726H20.861C21.2688 33.7726 21.5969 33.4351 21.5969 33.0226V30.8616L22.7641 32.0522C23.05 32.3429 23.5188 32.3429 23.8047 32.0522L24.325 31.5226C24.611 31.2319 24.611 30.7538 24.325 30.4632L21.5922 27.6835V23.7226L24.9625 25.7007L25.9609 29.4976C26.0641 29.896 26.4719 30.1351 26.8656 30.0272L27.5781 29.8351C27.9719 29.7272 28.2063 29.3147 28.0984 28.9163L27.6719 27.2897L29.5094 28.3679C29.8609 28.5741 30.3109 28.4522 30.5172 28.0913L30.8875 27.4397C31.1031 27.0882 30.9859 26.6288 30.6297 26.4226V26.4226Z" fill="#323232"/>
</g>
<defs>
<filter id="filter0_ddd_20_398" x="0.000183105" y="0.772552" width="41.0033" height="44" filterUnits="userSpaceOnUse" color-interpolation-filters="sRGB">
<feFlood flood-opacity="0" result="BackgroundImageFix"/>
<feColorMatrix in="SourceAlpha" type="matrix" values="0 0 0 0 0 0 0 0 0 0 0 0 0 0 0 0 0 0 127 0" result="hardAlpha"/>
<feOffset dy="1"/>
<feGaussianBlur stdDeviation="5"/>
<feComposite in2="hardAlpha" operator="out"/>
<feColorMatrix type="matrix" values="0 0 0 0 0 0 0 0 0 0 0 0 0 0 0 0 0 0 0.12 0"/>
<feBlend mode="normal" in2="BackgroundImageFix" result="effect1_dropShadow_20_398"/>
<feColorMatrix in="SourceAlpha" type="matrix" values="0 0 0 0 0 0 0 0 0 0 0 0 0 0 0 0 0 0 127 0" result="hardAlpha"/>
<feOffset dy="4"/>
<feGaussianBlur stdDeviation="2.5"/>
<feComposite in2="hardAlpha" operator="out"/>
<feColorMatrix type="matrix" values="0 0 0 0 0 0 0 0 0 0 0 0 0 0 0 0 0 0 0.14 0"/>
<feBlend mode="normal" in2="effect1_dropShadow_20_398" result="effect2_dropShadow_20_398"/>
<feColorMatrix in="SourceAlpha" type="matrix" values="0 0 0 0 0 0 0 0 0 0 0 0 0 0 0 0 0 0 127 0" result="hardAlpha"/>
<feMorphology radius="1" operator="erode" in="SourceAlpha" result="effect3_dropShadow_20_398"/>
<feOffset dy="2"/>
<feGaussianBlur stdDeviation="2"/>
<feComposite in2="hardAlpha" operator="out"/>
<feColorMatrix type="matrix" values="0 0 0 0 0 0 0 0 0 0 0 0 0 0 0 0 0 0 0.2 0"/>
<feBlend mode="normal" in2="effect2_dropShadow_20_398" result="effect3_dropShadow_20_398"/>
<feBlend mode="normal" in="SourceGraphic" in2="effect3_dropShadow_20_398" result="shape"/>
</filter>
</defs>
</svg>
